<svg xmlns="http://www.w3.org/2000/svg" xmlns:xlink="http://www.w3.org/1999/xlink" width="500" zoomAndPan="magnify" viewBox="0 0 375 374.999991" height="500" preserveAspectRatio="xMidYMid meet" version="1.2"><defs><clipPath id="00084004a1"><path d="M 72 65.160156 L 129 65.160156 L 129 106 L 72 106 Z M 72 65.160156 "/></clipPath><clipPath id="440e8b06bb"><path d="M 246 65.160156 L 302 65.160156 L 302 106 L 246 106 Z M 246 65.160156 "/></clipPath></defs><g id="d6902d77a1"><path style=" stroke:none;fill-rule:nonzero;fill:#5f6d40;fill-opacity:1;" d="M 187.328125 201.273438 C 186.171875 201.273438 185.285156 200.832031 184.703125 200.496094 C 183.621094 199.867188 182.949219 199.003906 182.457031 198.375 C 182.351562 198.242188 182.253906 198.109375 182.144531 197.988281 C 178.597656 193.847656 176.898438 188.78125 177.359375 183.742188 C 177.84375 178.453125 180.652344 173.480469 185.269531 169.742188 L 187.335938 168.070312 L 189.398438 169.742188 C 194.023438 173.480469 196.828125 178.453125 197.308594 183.742188 C 197.769531 188.78125 196.074219 193.839844 192.523438 197.988281 C 192.417969 198.109375 192.320312 198.242188 192.210938 198.367188 C 191.738281 198.957031 191.082031 199.773438 190.03125 200.429688 C 189.710938 200.636719 188.71875 201.25 187.410156 201.273438 C 187.375 201.273438 187.351562 201.273438 187.328125 201.273438 Z M 188.074219 194.882812 Z M 187.335938 176.796875 C 185.335938 179.042969 184.128906 181.652344 183.882812 184.339844 C 183.582031 187.652344 184.703125 190.898438 187.121094 193.726562 C 187.1875 193.808594 187.261719 193.890625 187.328125 193.972656 C 187.390625 193.890625 187.464844 193.808594 187.53125 193.726562 C 189.957031 190.898438 191.074219 187.652344 190.769531 184.339844 C 190.53125 181.652344 189.335938 179.042969 187.335938 176.796875 Z M 187.335938 176.796875 "/><path style=" stroke:none;fill-rule:nonzero;fill:#5f6d40;fill-opacity:1;" d="M 116.929688 306.796875 C 97.101562 306.796875 77.492188 301.050781 60.769531 290.199219 L 53.253906 285.320312 C 51.738281 284.335938 51.304688 282.304688 52.289062 280.789062 C 53.269531 279.269531 55.304688 278.835938 56.820312 279.820312 L 64.335938 284.695312 C 102.273438 309.320312 153.023438 303.992188 185.007812 272.023438 L 233.746094 223.285156 L 236 220.996094 L 245.394531 211.605469 C 258.183594 198.816406 258.183594 178.011719 245.394531 165.234375 C 239.199219 159.035156 230.96875 155.625 222.207031 155.625 C 213.441406 155.625 205.210938 159.035156 199.015625 165.234375 L 189.621094 174.625 C 188.34375 175.90625 186.269531 175.90625 184.980469 174.625 C 183.703125 173.347656 183.703125 171.273438 184.980469 169.988281 L 194.375 160.59375 C 201.8125 153.160156 211.6875 149.066406 222.195312 149.066406 C 232.707031 149.066406 242.589844 153.160156 250.019531 160.59375 C 257.445312 168.027344 261.542969 177.90625 261.542969 188.414062 C 261.542969 198.921875 257.453125 208.808594 250.019531 216.234375 L 189.628906 276.664062 C 172.996094 293.28125 150.964844 303.789062 127.585938 306.238281 C 124.054688 306.617188 120.488281 306.796875 116.929688 306.796875 Z M 116.929688 306.796875 "/><path style=" stroke:none;fill-rule:nonzero;fill:#5f6d40;fill-opacity:1;" d="M 257.707031 306.796875 C 254.148438 306.796875 250.582031 306.609375 247.027344 306.238281 C 223.648438 303.78125 201.613281 293.28125 184.980469 276.664062 L 131.699219 223.382812 L 131.71875 223.367188 L 124.585938 216.234375 C 109.242188 200.890625 109.242188 175.929688 124.585938 160.585938 C 132.019531 153.148438 141.898438 149.058594 152.40625 149.058594 C 162.914062 149.058594 172.800781 153.148438 180.226562 160.585938 L 189.621094 169.980469 C 190.902344 171.257812 190.902344 173.332031 189.621094 174.617188 C 188.34375 175.898438 186.269531 175.898438 184.980469 174.617188 L 175.589844 165.222656 C 169.390625 159.027344 161.160156 155.617188 152.398438 155.617188 C 143.636719 155.617188 135.40625 159.027344 129.207031 165.222656 C 123.011719 171.421875 119.601562 179.652344 119.601562 188.414062 C 119.601562 197.175781 123.011719 205.40625 129.207031 211.605469 L 140.875 223.269531 L 140.855469 223.285156 L 189.597656 272.03125 C 221.589844 304 272.339844 309.328125 310.265625 284.707031 L 317.785156 279.828125 C 319.300781 278.84375 321.332031 279.277344 322.316406 280.796875 C 323.300781 282.3125 322.875 284.34375 321.347656 285.328125 L 313.832031 290.207031 C 297.144531 301.050781 277.535156 306.796875 257.707031 306.796875 Z M 257.707031 306.796875 "/><path style=" stroke:none;fill-rule:nonzero;fill:#5f6d40;fill-opacity:1;" d="M 332.605469 272.933594 C 331.769531 272.933594 330.921875 272.613281 330.285156 271.976562 C 329.003906 270.695312 329.003906 268.621094 330.285156 267.335938 C 362.828125 234.792969 362.828125 181.839844 330.285156 149.296875 C 314.519531 133.535156 293.5625 124.855469 271.265625 124.855469 C 248.96875 124.855469 228.007812 133.535156 212.246094 149.296875 L 187.328125 174.214844 L 162.40625 149.296875 C 146.644531 133.535156 125.683594 124.855469 103.386719 124.855469 C 81.09375 124.855469 60.132812 133.535156 44.367188 149.296875 C 11.828125 181.839844 11.828125 234.792969 44.367188 267.335938 C 45.648438 268.613281 45.648438 270.6875 44.367188 271.976562 C 43.089844 273.253906 41.015625 273.253906 39.730469 271.976562 C 22.738281 254.972656 13.375 232.367188 13.375 208.316406 C 13.375 184.273438 22.738281 161.667969 39.746094 144.65625 C 56.753906 127.648438 79.355469 118.289062 103.40625 118.289062 C 127.453125 118.289062 150.054688 127.648438 167.0625 144.65625 L 187.34375 164.9375 L 207.621094 144.65625 C 224.625 127.65625 247.230469 118.289062 271.28125 118.289062 C 295.324219 118.289062 317.929688 127.648438 334.941406 144.65625 C 351.941406 161.660156 361.308594 184.265625 361.308594 208.316406 C 361.308594 232.359375 351.949219 254.964844 334.941406 271.976562 C 334.285156 272.613281 333.441406 272.933594 332.605469 272.933594 Z M 332.605469 272.933594 "/><g clip-rule="nonzero" clip-path="url(#00084004a1)"><path style=" stroke:none;fill-rule:nonzero;fill:#5f6d40;fill-opacity:1;" d="M 100.4375 105.65625 L 72.835938 86.34375 L 81.773438 65.441406 L 119.101562 65.441406 L 128.035156 86.34375 Z M 80.960938 84.023438 L 100.4375 97.648438 L 119.914062 84.023438 L 114.773438 72 L 86.101562 72 Z M 80.960938 84.023438 "/></g><g clip-rule="nonzero" clip-path="url(#440e8b06bb)"><path style=" stroke:none;fill-rule:nonzero;fill:#5f6d40;fill-opacity:1;" d="M 274.230469 105.65625 L 246.632812 86.34375 L 255.566406 65.441406 L 292.898438 65.441406 L 301.832031 86.34375 Z M 254.753906 84.023438 L 274.230469 97.648438 L 293.707031 84.023438 L 288.570312 72 L 259.894531 72 Z M 254.753906 84.023438 "/></g></g></svg>